<svg width="1024" height="1024" viewBox="0 0 1024 1024" fill="none" xmlns="http://www.w3.org/2000/svg">
<g clip-path="url(#clip0_1_1704)">
<rect width="1024" height="1024" fill="white"/>
<rect x="-554" y="-52" width="1800" height="1800" rx="220" fill="url(#paint0_radial_1_1704)"/>
<rect x="-603" y="-729" width="1800" height="1800" rx="220" fill="url(#paint1_radial_1_1704)"/>
<rect x="-121" y="-622" width="1800" height="1800" rx="220" fill="url(#paint2_radial_1_1704)"/>
<rect x="-530" y="67" width="1800" height="1800" rx="220" fill="url(#paint3_radial_1_1704)"/>
<path d="M867 328C867 241.291 796.709 171 710 171H324C237.291 171 167 241.291 167 328V714C167 800.709 237.291 871 324 871H710C796.709 871 867 800.709 867 714V328Z" fill="#6FD98C"/>
<path d="M213 358C213 279.576 276.576 216 355 216H681C759.424 216 823 279.576 823 358V684C823 762.424 759.424 826 681 826H355C276.576 826 213 762.424 213 684V358Z" fill="#2EA043"/>
<path d="M464.83 770C484.522 770 500.933 760.423 512.092 741.269L738.559 369.14C745.123 356.827 753 343.145 753 329.464C753 302.101 729.369 285 705.082 285C689.327 285 674.886 293.893 664.383 312.362L462.204 653.024L371.617 525.789C357.832 505.952 344.703 501.163 328.95 501.163C302.692 501.163 283 522.37 283 549.732C283 562.728 288.251 575.727 296.785 587.354L414.285 741.269C429.383 761.79 445.138 770 464.83 770Z" fill="#99E8AD"/>
</g>
<defs>
<radialGradient id="paint0_radial_1_1704" cx="0" cy="0" r="1" gradientUnits="userSpaceOnUse" gradientTransform="translate(346 848) rotate(90) scale(900)">
<stop stop-color="#B8E0C8"/>
<stop offset="0.773011" stop-color="#B8E0C8" stop-opacity="0.226989"/>
<stop offset="1" stop-color="#B8E0C8" stop-opacity="0"/>
</radialGradient>
<radialGradient id="paint1_radial_1_1704" cx="0" cy="0" r="1" gradientUnits="userSpaceOnUse" gradientTransform="translate(297 171) rotate(90) scale(900)">
<stop stop-color="#A65FFE"/>
<stop offset="1" stop-color="#A65FFE" stop-opacity="0"/>
</radialGradient>
<radialGradient id="paint2_radial_1_1704" cx="0" cy="0" r="1" gradientUnits="userSpaceOnUse" gradientTransform="translate(779 278) rotate(90) scale(900)">
<stop stop-color="#8FB4F6"/>
<stop offset="1" stop-color="#8FB4F6" stop-opacity="0"/>
</radialGradient>
<radialGradient id="paint3_radial_1_1704" cx="0" cy="0" r="1" gradientUnits="userSpaceOnUse" gradientTransform="translate(370 967) rotate(90) scale(900)">
<stop stop-color="#A390EE"/>
<stop offset="1" stop-color="#A390EE" stop-opacity="0"/>
</radialGradient>
<clipPath id="clip0_1_1704">
<rect width="1024" height="1024" fill="white"/>
</clipPath>
</defs>
</svg>
